<svg xmlns="http://www.w3.org/2000/svg" xmlns:xlink="http://www.w3.org/1999/xlink" width="25" height="24" viewBox="0 0 25 24">
  <defs>
    <clipPath id="clip-path">
      <rect id="Rectangle_3106" data-name="Rectangle 3106" width="25" height="24" transform="translate(1535 3806)" fill="rgba(255,255,255,0)" stroke="#707070" stroke-width="1"/>
    </clipPath>
  </defs>
  <g id="Mask_Group_44" data-name="Mask Group 44" transform="translate(-1535 -3806)" clip-path="url(#clip-path)">
    <path id="undo" d="M7.654,8.092H.433A.433.433,0,0,1,0,7.659V.433A.433.433,0,0,1,.433,0h1.73A.433.433,0,0,1,2.6.433V3.251a8.945,8.945,0,1,1,.642,12.614.434.434,0,0,1-.017-.628L4.446,14.01a.432.432,0,0,1,.591-.019A6.345,6.345,0,0,0,15.585,9.235a12.431,12.431,0,0,0-1.349-3.916s-2.836-2.433-5-2.433A6.332,6.332,0,0,0,4.112,5.5H7.654a.433.433,0,0,1,.433.433V7.659a.433.433,0,0,1-.433.433Z" transform="translate(1536 3819.326) rotate(-52)" fill="#aaa"/>
  </g>
</svg>
